<svg xmlns="http://www.w3.org/2000/svg" xmlns:xlink="http://www.w3.org/1999/xlink" width="65" height="58" viewBox="0 0 65 58"><defs><path id="w8hqa" d="M225.33 112s-3.06 6.68-8.82 7.77c-5.75 1.08 12.42 4.43 20.54 0S225.33 112 225.33 112z"/><path id="w8hqb" d="M218 95a29 29 0 0 1 29-29h4a29 29 0 1 1 0 58h-4a29 29 0 0 1-29-29z"/><path id="w8hqc" d="M229 95a20 20 0 0 1 40 0 20 20 0 0 1-40 0z"/></defs><g><g transform="translate(-215 -66)"><use fill="#64e6a4" xlink:href="#w8hqa"/></g><g transform="translate(-215 -66)"><use fill="#64e6a4" xlink:href="#w8hqb"/></g><g transform="translate(-215 -66)"><use fill="#fff" xlink:href="#w8hqc"/></g></g></svg>