<svg xmlns="http://www.w3.org/2000/svg" xmlns:xlink="http://www.w3.org/1999/xlink" width="139" height="58" viewBox="0 0 139 58"><defs><path id="nhj5a" d="M225.33 112s-3.06 6.68-8.82 7.77c-5.75 1.08 12.42 4.43 20.54 0S225.33 112 225.33 112z"/><path id="nhj5b" d="M218 95a29 29 0 0 1 29-29h4a29 29 0 1 1 0 58h-4a29 29 0 0 1-29-29z"/><path id="nhj5c" d="M301.76 87.96v1.76h5.6v3.6h-5.6V111h-4.48V93.32h-2.68v-3.6h2.68v-1.64c0-2.24.67-4.02 2.02-5.34a6.72 6.72 0 0 1 4.88-1.98c1.9 0 3.65.7 5.22 2.12l-1.84 3.16c-.88-.93-1.8-1.4-2.76-1.4-.96 0-1.7.3-2.24.9-.53.6-.8 1.4-.8 2.42zm14.4 23.04h-4.48V89.72h4.48zm-4.2-25.52a2.73 2.73 0 0 1-.84-2c0-.77.28-1.44.84-2a2.73 2.73 0 0 1 2-.84c.77 0 1.44.28 2 .84.56.56.84 1.23.84 2s-.28 1.44-.84 2c-.56.56-1.23.84-2 .84s-1.44-.28-2-.84zm15.16 14V111h-4.48V89.72h4.48v3.88a7.97 7.97 0 0 1 2.98-3.08 7.93 7.93 0 0 1 4.1-1.12c2.4 0 4.34.73 5.82 2.2 1.48 1.47 2.22 3.59 2.22 6.36V111h-4.48V99.32c0-3.92-1.63-5.88-4.88-5.88-1.55 0-2.9.51-4.04 1.54-1.15 1.03-1.72 2.53-1.72 4.5zm21.6 10.96a2.96 2.96 0 0 1-.84-2.12c0-.83.29-1.53.86-2.1a2.86 2.86 0 0 1 2.1-.86c.83 0 1.53.29 2.12.86.59.57.88 1.27.88 2.1 0 .83-.3 1.53-.88 2.12-.59.59-1.3.88-2.12.88-.83 0-1.53-.3-2.12-.88z"/><path id="nhj5d" d="M229 95a20 20 0 0 1 40 0 20 20 0 0 1-40 0z"/><path id="nhj5e" d="M260.55 94.95c.03 1.16-.03 2.31-.17 3.46-.12.68-.41 1.18-1.1 1.36h-.1c.16 1.81-.65 2.72-1.42 3.16a.8.8 0 0 1-1.15-.42.74.74 0 0 1-.05-.27V99c-.22.35-.46.7-.73 1.01v.01a9.13 9.13 0 0 1-4.85 3.1v1.83c.44 0 .8.36.8.8a.8.8 0 0 1-.8.8h-4a.8.8 0 0 1-.8-.8c0-.44.36-.8.8-.8v-1.84a8.23 8.23 0 0 1-1.3-.43 9.14 9.14 0 0 1-4.29-3.68v3.23a.8.8 0 0 1-1.2.7 2.8 2.8 0 0 1-.48-.36c-.58-.52-1.06-1.39-.93-2.8l-.1-.01c-.69-.18-.98-.68-1.1-1.36-.15-1.15-.2-2.3-.17-3.46-.03-1.05 0-2.1.11-3.16.23-2.06.88-4.1 2.35-5.6.77-.79 1.5-1.01 2.08-1l.08.01c.42.03.83.18 1.17.43a8.56 8.56 0 0 1 11.57 0c.4-.3.9-.45 1.4-.43.74.07 1.44.42 1.92 1 1.47 1.49 2.12 3.53 2.35 5.6.1 1.04.14 2.1.1 3.15z"/><path id="nhj5f" d="M259.35 94.55c.03 1.16-.02 2.31-.17 3.46-.12.68-.41 1.18-1.1 1.36h-.1c.16 1.78-.62 2.68-1.37 3.14a.74.74 0 0 1-.05-.27V99c-.22.35-.46.7-.73 1.01v.01l-.46.52V98.6c-.22.35-.47.7-.74 1.01v.01a9.02 9.02 0 0 1-4.85 3.1v1.83c.44 0 .8.36.8.8a.8.8 0 0 1-.8.8h-3.49a.8.8 0 0 1 .7-1.2v-1.84c-.41-.1-.82-.23-1.2-.39a9.14 9.14 0 0 1-4.4-3.72v1.13a9.47 9.47 0 0 1-1.2-1.53v3.23a.8.8 0 0 1-.48.74c-.58-.52-1.06-1.39-.93-2.8l-.1-.01c-.69-.18-.98-.68-1.1-1.36-.15-1.15-.2-2.3-.17-3.46-.03-1.05 0-2.1.11-3.16.23-2.06.88-4.1 2.35-5.6.77-.79 1.5-1.01 2.08-1l.05.04.03-.03c.42.03.83.18 1.17.43a8.56 8.56 0 0 1 7.88-1.97c.47.2.93.44 1.37.73.4.25.77.53 1.12.84.12-.09.25-.17.4-.23.27.2.54.4.8.63.4-.3.9-.45 1.4-.43.26.17.5.37.73.6 1.47 1.49 2.11 3.53 2.34 5.6.1 1.04.14 2.1.11 3.15z"/><path id="nhj5g" d="M253.65 84.79c-.77.45-1.62.74-2.5.85h-.02c-.7.1-1.43.16-2.15.16-2.05 0-3.82-.42-4.66-1.01a8.53 8.53 0 0 1 9.33 0z"/><path id="nhj5h" d="M252.05 85.19c-.28.19-.59.34-.9.45h-.02c-.7.1-1.43.16-2.15.16-2.05 0-3.82-.42-4.66-1.01a8.7 8.7 0 0 1 1.81-.9 8.56 8.56 0 0 1 5.92 1.3z"/><path id="nhj5i" d="M247.78 92.39c0 .5-.05 1-.18 1.48-3.3.43-5.8 2.38-5.8 4.7 0 .51.11 1 .34 1.46a10.69 10.69 0 0 1-.42-12.74c.47-.2.97-.3 1.47-.29 2.54 0 4.6 2.41 4.6 5.39z"/><path id="nhj5j" d="M258.16 93.39a10.55 10.55 0 0 1-2.33 6.64c.44-.89.45-1.93.04-2.83-.76-1.68-2.88-2.99-5.51-3.33a6.03 6.03 0 0 1-.18-1.48c0-2.66 1.64-4.87 3.8-5.3a3.91 3.91 0 0 1 2.27.2 10.48 10.48 0 0 1 1.91 6.1z"/><path id="nhj5k" d="M256.57 93.38c0 1.3-.24 2.6-.7 3.82-.76-1.69-2.88-2.99-5.51-3.33a6.03 6.03 0 0 1-.18-1.48c0-2.66 1.64-4.87 3.8-5.31.23.05.45.12.67.2a10.48 10.48 0 0 1 1.92 6.1z"/><path id="nhj5l" d="M256.16 98.57c0 .5-.12 1-.34 1.45v.01a9.02 9.02 0 0 1-6.84 3.33 9.57 9.57 0 0 1-.8-.04 9 9 0 0 1-6.05-3.3 3.35 3.35 0 0 1-.34-1.45c0-2.33 2.5-4.27 5.8-4.7a9.17 9.17 0 0 1 1.39-.09c.46 0 .92.03 1.37.09 3.31.42 5.81 2.37 5.81 4.7zm-7.18 0c1.32 0 2.4-1.33 2.4-2 0-.66-1.08-1.2-2.4-1.2-1.33 0-2.4.54-2.4 1.2 0 .67 1.07 2 2.4 2z"/><path id="nhj5m" d="M248.76 93.87l-.58-.06c-.2.01-.39.03-.58.06-3.31.42-5.81 2.37-5.81 4.7 0 .5.12 1 .34 1.45a9 9 0 0 0 6.05 3.3 9.02 9.02 0 0 0 6.04-3.29c.23-.46.34-.96.35-1.46 0-2.33-2.5-4.28-5.81-4.7z"/><path id="nhj5n" d="M248.98 100.57a.4.4 0 0 1-.4-.4v-1.6a.4.4 0 0 1 .8 0v1.6a.4.4 0 0 1-.4.4z"/><path id="nhj5o" d="M247.11 101.57c-1.3 0-2.27-.6-2.27-1.4a.4.4 0 0 1 .8 0c0 .24.59.6 1.47.6.89 0 1.47-.36 1.47-.6a.4.4 0 0 1 .8 0c0 .8-.98 1.4-2.27 1.4z"/><path id="nhj5p" d="M250.85 101.57c-1.3 0-2.27-.6-2.27-1.4a.4.4 0 0 1 .8 0c0 .24.59.6 1.47.6.89 0 1.47-.36 1.47-.6a.4.4 0 1 1 .8 0c0 .8-.98 1.4-2.27 1.4z"/><path id="nhj5q" d="M250.97 103.12v1.84h-3.99v-1.84a8.64 8.64 0 0 0 4 0z"/><path id="nhj5r" d="M251.78 105.76a.8.8 0 0 1-.8.8h-4a.8.8 0 0 1-.79-.8c0-.44.36-.8.8-.8h4c.43 0 .79.36.79.8z"/><path id="nhj5s" d="M243.39 89.39a.4.4 0 1 1 .8 0 .4.4 0 0 1-.8 0z"/><path id="nhj5t" d="M241.79 89.39a.4.4 0 1 1 .8 0 .4.4 0 0 1-.8 0z"/><path id="nhj5u" d="M241.79 90.99a.4.4 0 1 1 .8 0 .4.4 0 0 1-.8 0z"/><path id="nhj5v" d="M241.79 92.59a.4.4 0 1 1 .8 0 .4.4 0 0 1-.8 0z"/><path id="nhj5w" d="M244.99 89.39a.4.4 0 1 1 .8 0 .4.4 0 0 1-.8 0z"/><path id="nhj5x" d="M244.99 90.99a.4.4 0 1 1 .8 0 .4.4 0 0 1-.8 0z"/><path id="nhj5y" d="M244.99 92.59a.4.4 0 1 1 .8 0 .4.4 0 0 1-.8 0z"/><path id="nhj5z" d="M243.39 93.38a.4.4 0 1 1 .8 0 .4.4 0 0 1-.8 0z"/><path id="nhj5A" d="M253.77 89.39a.4.4 0 1 1 .8 0 .4.4 0 0 1-.8 0z"/><path id="nhj5B" d="M252.17 89.39a.4.4 0 1 1 .8 0 .4.4 0 0 1-.8 0z"/><path id="nhj5C" d="M252.17 90.99a.4.4 0 1 1 .8 0 .4.4 0 0 1-.8 0z"/><path id="nhj5D" d="M252.17 92.59a.4.4 0 1 1 .8 0 .4.4 0 0 1-.8 0z"/><path id="nhj5E" d="M255.37 89.39a.4.4 0 1 1 .8 0 .4.4 0 0 1-.8 0z"/><path id="nhj5F" d="M255.37 90.99a.4.4 0 1 1 .8 0 .4.4 0 0 1-.8 0z"/><path id="nhj5G" d="M255.37 92.59a.4.4 0 1 1 .8 0 .4.4 0 0 1-.8 0z"/><path id="nhj5H" d="M253.77 93.38a.4.4 0 1 1 .8 0 .4.4 0 0 1-.8 0z"/><path id="nhj5I" d="M256.25 87.29a3.91 3.91 0 0 0-2.1-.24 8.76 8.76 0 0 0-1.82-1.67c.47-.13.9-.33 1.31-.59a9.42 9.42 0 0 1 2.6 2.5z"/><path id="nhj5J" d="M254.15 87.05c-.4.06-.78.18-1.13.35-1.67.8-2.85 2.74-2.85 4.99 0 .5.06 1 .18 1.48a11.1 11.1 0 0 0-1.37-.09h-.32c-.36.02-.71.05-1.06.1.12-.5.18-1 .18-1.5 0-2.97-2.06-5.38-4.6-5.38-.5 0-1 .1-1.47.29.43-.61.92-1.16 1.48-1.65l.13-.12c.31-.27.64-.51 1-.73.84.6 2.6 1.01 4.66 1.01.72 0 1.44-.05 2.15-.16.4-.06.8-.15 1.2-.26a8.21 8.21 0 0 1 1.82 1.67z"/><path id="nhj5K" d="M252.05 85.19l.28.2c-.4.13-.79.23-1.19.3.32-.12.63-.29.9-.5z"/><path id="nhj5L" d="M251.38 96.58c0 .66-1.07 2-2.4 2a2 2 0 0 1-.6-.1c-1.02-.3-1.79-1.34-1.79-1.9 0-.56.77-1.03 1.8-1.16.2-.03.4-.04.6-.04 1.32 0 2.4.54 2.4 1.2z"/><path id="nhj5M" d="M250.18 96.58c0 .56-.76 1.6-1.8 1.9-1.02-.3-1.79-1.34-1.79-1.9 0-.56.77-1.03 1.8-1.16 1.03.13 1.8.6 1.8 1.16z"/><path id="nhj5N" d="M253 99.89a.4.4 0 0 1 .12.28c0 .8-.97 1.4-2.27 1.4a2.84 2.84 0 0 1-1.87-.59c-.53.41-1.2.62-1.87.59-1.3 0-2.27-.6-2.27-1.4a.4.4 0 0 1 .8 0c0 .24.59.6 1.47.6.89 0 1.47-.36 1.47-.6v-1.24c-1.33-.22-2.4-1.51-2.4-2.35 0-.91 1.2-1.6 2.8-1.6 1.6 0 2.8.69 2.8 1.6 0 .84-1.06 2.13-2.4 2.35v1.24c0 .24.59.6 1.47.6.89 0 1.48-.36 1.48-.6a.4.4 0 0 1 .68-.28zm-4.02-1.72c1.1 0 2-1.16 2-1.6 0-.32-.78-.8-2-.8s-2 .48-2 .8c0 .44.91 1.6 2 1.6z"/><path id="nhj5O" d="M237.01 94.95c-.03-1.07 0-2.14.11-3.2.28-2.5 1.1-4.46 2.46-5.84 1.54-1.57 2.93-1.13 3.58-.77a8.93 8.93 0 0 1 11.63 0c.66-.36 2.05-.8 3.59.77 1.35 1.38 2.18 3.34 2.45 5.84.11 1.06.15 2.14.12 3.2v.66c.02.96-.04 1.92-.18 2.87-.05.71-.5 1.33-1.17 1.6.05 1.8-.85 2.73-1.63 3.2a1.2 1.2 0 0 1-1.8-1.04v-2l-.06.07a9.5 9.5 0 0 1-4.73 3.12v1.2a1.2 1.2 0 0 1-.4 2.32h-4a1.2 1.2 0 0 1-.4-2.32v-1.2a9.51 9.51 0 0 1-4.79-3.2v2a1.2 1.2 0 0 1-1.8 1.05c-.78-.47-1.68-1.4-1.63-3.2a1.89 1.89 0 0 1-1.17-1.6c-.14-.95-.2-1.9-.17-2.86v-.67zm7.32-9.7c-.57.4-1.1.85-1.56 1.36l.42-.02c2.75 0 5 2.6 5 5.8 0 .34-.04.68-.1 1.03.6-.05 1.19-.05 1.77 0a6.63 6.63 0 0 1-.08-1.04c0-3.19 2.24-5.79 4.99-5.79l.42.02c-.46-.5-.99-.96-1.56-1.35-1 .58-2.73.93-4.65.93-1.92 0-3.65-.35-4.65-.93zm12.21 13c1.81-3.38 1.6-7.47-.55-10.64-.4-.14-.8-.22-1.22-.22-2.31 0-4.2 2.24-4.2 5 0 .37.05.75.13 1.13 3.26.51 5.63 2.44 5.84 4.72zm-15.13-.02c.22-2.3 2.64-4.2 5.85-4.72.08-.37.12-.75.12-1.13 0-2.75-1.88-4.99-4.19-4.99-.41 0-.83.08-1.22.22a10.28 10.28 0 0 0-.56 10.62zm9.97 7.53a.4.4 0 0 0-.4-.4h-4a.4.4 0 0 0 0 .8h4a.4.4 0 0 0 .4-.4zm-.8-1.2v-.95a9.98 9.98 0 0 1-2.1.13 8.86 8.86 0 0 1-1.1-.13v.95zm4.9-4.75c.19-.39.28-.81.29-1.24 0-2.09-2.3-3.9-5.46-4.3-4.34-.55-8.12 1.6-8.12 4.3 0 .43.1.86.29 1.24a8.46 8.46 0 0 0 6.5 3.15 8.46 8.46 0 0 0 6.5-3.15zm-.05-14.1c.4.4.77.83 1.1 1.29V87c2.54 3.59 2.71 8.34.43 12.1v3.13a.4.4 0 0 0 .6.35c.93-.55 1.34-1.48 1.23-2.78-.04-.38-.11-.76-.21-1.14a.4.4 0 0 1 .77-.2c.07.26.12.51.16.76.28-.21.45-.54.48-.89.12-.9.18-1.82.16-2.73v-.67c.03-1.03 0-2.07-.1-3.1-.26-2.32-1.02-4.12-2.24-5.37-.98-1-1.81-.98-2.38-.76zm-2.6-.94a8.11 8.11 0 0 0-7.7 0c1.24.44 2.54.66 3.85.63 1.31.03 2.61-.19 3.85-.63zM237.8 94.94v.67c-.02.92.04 1.83.17 2.73.02.35.2.68.47.9.04-.27.1-.52.16-.78a.4.4 0 1 1 .77.21c-.1.38-.17.76-.2 1.14-.12 1.3.29 2.23 1.22 2.78.12.07.27.07.4 0a.4.4 0 0 0 .2-.35V99.1c-2.28-3.76-2.11-8.51.42-12.1l.01-.01c.33-.46.7-.89 1.1-1.29-.57-.22-1.4-.24-2.38.76-1.23 1.25-1.98 3.05-2.23 5.36-.1 1.04-.14 2.07-.11 3.11z"/></defs><g><g transform="translate(-215 -66)"><use fill="#64e6a4" xlink:href="#nhj5a"/></g><g transform="translate(-215 -66)"><use fill="#64e6a4" xlink:href="#nhj5b"/></g><g transform="translate(-215 -66)"><use fill="#081d41" xlink:href="#nhj5c"/></g><g transform="translate(-215 -66)"><use fill="#fff" xlink:href="#nhj5d"/></g><g transform="translate(-215 -66)"><g><g><use fill="#36474f" xlink:href="#nhj5e"/></g><g><use fill="#607c8b" xlink:href="#nhj5f"/></g><g><use fill="#00838f" xlink:href="#nhj5g"/></g><g><use fill="#00bcd3" xlink:href="#nhj5h"/></g><g><use fill="#009688" xlink:href="#nhj5i"/></g><g><use fill="#00695c" xlink:href="#nhj5j"/></g><g><use fill="#009688" xlink:href="#nhj5k"/></g><g><use fill="#00838f" xlink:href="#nhj5l"/></g><g><g><use fill="#00bcd3" xlink:href="#nhj5m"/></g><g><g><use fill="#00bcd3" xlink:href="#nhj5n"/></g><g><use fill="#00bcd3" xlink:href="#nhj5o"/></g><g><use fill="#00bcd3" xlink:href="#nhj5p"/></g></g></g><g><use fill="#cfd8dc" xlink:href="#nhj5q"/></g><g><use fill="#00bcd3" xlink:href="#nhj5r"/></g><g><g><use fill="#e91d63" xlink:href="#nhj5s"/></g><g><use fill="#e91d63" xlink:href="#nhj5t"/></g><g><use fill="#e91d63" xlink:href="#nhj5u"/></g><g><use fill="#e91d63" xlink:href="#nhj5v"/></g><g><use fill="#e91d63" xlink:href="#nhj5w"/></g><g><use fill="#e91d63" xlink:href="#nhj5x"/></g><g><use fill="#e91d63" xlink:href="#nhj5y"/></g><g><use fill="#e91d63" xlink:href="#nhj5z"/></g><g><use fill="#e91d63" xlink:href="#nhj5A"/></g><g><use fill="#e91d63" xlink:href="#nhj5B"/></g><g><use fill="#e91d63" xlink:href="#nhj5C"/></g><g><use fill="#e91d63" xlink:href="#nhj5D"/></g><g><use fill="#e91d63" xlink:href="#nhj5E"/></g><g><use fill="#e91d63" xlink:href="#nhj5F"/></g><g><use fill="#e91d63" xlink:href="#nhj5G"/></g><g><use fill="#e91d63" xlink:href="#nhj5H"/></g></g><g><use fill="#cfd8dc" xlink:href="#nhj5I"/></g><g><use fill="#f5f5f5" xlink:href="#nhj5J"/></g><g><use fill="#cfd8dc" xlink:href="#nhj5K"/></g><g><use fill="#4e342e" xlink:href="#nhj5L"/></g><g><use fill="#795548" xlink:href="#nhj5M"/></g></g><g><g><use xlink:href="#nhj5N"/></g><g><use xlink:href="#nhj5s"/></g><g><use xlink:href="#nhj5t"/></g><g><use xlink:href="#nhj5u"/></g><g><use xlink:href="#nhj5v"/></g><g><use xlink:href="#nhj5w"/></g><g><use xlink:href="#nhj5x"/></g><g><use xlink:href="#nhj5y"/></g><g><use xlink:href="#nhj5z"/></g><g><use xlink:href="#nhj5A"/></g><g><use xlink:href="#nhj5B"/></g><g><use xlink:href="#nhj5C"/></g><g><use xlink:href="#nhj5D"/></g><g><use xlink:href="#nhj5E"/></g><g><use xlink:href="#nhj5F"/></g><g><use xlink:href="#nhj5G"/></g><g><use xlink:href="#nhj5H"/></g><g><use xlink:href="#nhj5O"/></g></g></g></g></svg>