<?xml version="1.0" encoding="utf-8"?>
<!-- Generator: Adobe Illustrator 16.0.0, SVG Export Plug-In . SVG Version: 6.00 Build 0)  -->
<!DOCTYPE svg PUBLIC "-//W3C//DTD SVG 1.1//EN" "http://www.w3.org/Graphics/SVG/1.1/DTD/svg11.dtd">
<svg version="1.1" id="Capa_1" xmlns="http://www.w3.org/2000/svg" xmlns:xlink="http://www.w3.org/1999/xlink" x="0px" y="0px"
	 width="56.693px" height="56.678px" viewBox="273.347 162.737 56.693 56.678"
	 enable-background="new 273.347 162.737 56.693 56.678" xml:space="preserve">
<g transform="translate(-1)">
	<g transform="translate(1 1)">
		<path fill="#37474F" d="M329.07,190.009c0.078,2.737-0.058,5.475-0.406,8.19c-0.283,1.606-0.973,2.796-2.617,3.212l-0.208,0.019
			c0.378,4.27-1.559,6.414-3.363,7.472c-0.486,0.282-1.072,0.332-1.599,0.137c-0.527-0.196-0.938-0.616-1.122-1.147
			c-0.077-0.202-0.115-0.417-0.113-0.633v-7.651c-0.524,0.844-1.108,1.648-1.748,2.409c0,0.009-0.009,0.009-0.009,0.019
			c-0.34,0.416-0.699,0.821-1.077,1.219c-2.798,2.997-6.409,5.114-10.391,6.093v4.345c1.042,0.003,1.886,0.848,1.889,1.89
			c-0.008,1.04-0.849,1.882-1.889,1.89h-9.446c-1.042-0.003-1.887-0.848-1.889-1.89c0.007-1.04,0.849-1.882,1.889-1.89v-4.345
			c-0.967-0.232-1.914-0.539-2.834-0.916c-0.082-0.023-0.161-0.056-0.236-0.095c-3.28-1.383-6.167-3.554-8.407-6.319
			c-0.639-0.761-1.223-1.565-1.748-2.409v7.651c0.002,0.677-0.357,1.302-0.942,1.642c-0.585,0.339-1.307,0.34-1.892,0.002
			c-0.414-0.237-0.8-0.52-1.153-0.841c-1.379-1.237-2.503-3.277-2.21-6.631l-0.208-0.019c-1.644-0.416-2.333-1.606-2.617-3.211
			c-0.348-2.715-0.484-5.454-0.406-8.19c-0.073-2.494,0.016-4.99,0.264-7.472c0.539-4.874,2.069-9.711,5.545-13.244
			c1.842-1.88,3.542-2.409,4.921-2.361c0.07-0.007,0.14-0.003,0.208,0.009c0.993,0.08,1.944,0.433,2.749,1.02
			c0.826-0.742,1.714-1.412,2.654-2.002c3.283-2.137,7.116-3.276,11.033-3.278c3.916,0.01,7.747,1.148,11.033,3.278
			c0.255,0.161,0.51,0.331,0.756,0.5c0.661,0.463,1.295,0.965,1.898,1.502c0.958-0.707,2.126-1.07,3.315-1.029
			c1.771,0.162,3.408,1.009,4.562,2.361c3.477,3.533,5.007,8.37,5.545,13.244C329.054,185.02,329.142,187.516,329.07,190.009z"/>
		<path fill="#607D8B" d="M326.236,189.065c0.078,2.736-0.058,5.475-0.406,8.19c-0.283,1.606-0.973,2.796-2.616,3.211l-0.208,0.019
			c0.369,4.185-1.483,6.32-3.25,7.406c-0.077-0.202-0.115-0.417-0.113-0.633v-7.651c-0.524,0.844-1.108,1.648-1.748,2.409
			c0,0.009-0.009,0.009-0.009,0.019c-0.34,0.416-0.699,0.821-1.077,1.219v-4.591c-0.524,0.843-1.108,1.648-1.748,2.409
			c0,0.009-0.009,0.009-0.009,0.019c-2.922,3.624-6.95,6.191-11.468,7.312v4.345c1.042,0.003,1.886,0.847,1.889,1.89
			c-0.007,1.04-0.849,1.882-1.889,1.889h-8.247c-0.167-0.286-0.255-0.612-0.255-0.944c0.007-1.04,0.849-1.882,1.889-1.89v-4.345
			c-0.967-0.232-1.914-0.539-2.834-0.916v-0.028c-0.08-0.018-0.159-0.04-0.236-0.066c-3.28-1.383-6.167-3.554-8.407-6.319
			c-0.639-0.761-1.223-1.565-1.748-2.409v2.692c-0.378-0.396-0.737-0.803-1.086-1.228c-0.639-0.76-1.223-1.565-1.748-2.409v7.651
			c0.003,0.762-0.451,1.45-1.153,1.747c-1.379-1.237-2.503-3.277-2.21-6.631l-0.208-0.019c-1.644-0.416-2.333-1.605-2.617-3.211
			c-0.348-2.715-0.484-5.454-0.406-8.19c-0.073-2.494,0.016-4.99,0.264-7.472c0.539-4.874,2.069-9.71,5.545-13.244
			c1.842-1.879,3.542-2.409,4.921-2.361c0.042,0.026,0.083,0.055,0.123,0.085c0.028-0.028,0.057-0.047,0.085-0.076
			c0.993,0.08,1.944,0.433,2.749,1.021c0.826-0.743,1.714-1.413,2.654-2.003c3.283-2.137,7.116-3.276,11.033-3.278
			c1.669,0,3.333,0.209,4.95,0.624c1.135,0.466,2.223,1.039,3.25,1.71c0.94,0.59,1.829,1.26,2.654,2.002
			c0.295-0.212,0.608-0.398,0.936-0.558c0.662,0.463,1.295,0.965,1.898,1.502c0.958-0.707,2.126-1.07,3.316-1.029
			c0.629,0.403,1.209,0.879,1.729,1.417c3.476,3.533,5.006,8.369,5.545,13.244C326.22,184.075,326.308,186.571,326.236,189.065z"/>
		<path fill="#00838F" d="M312.728,165.959c-1.809,1.085-3.828,1.771-5.923,2.012c-0.01,0-0.01,0.009-0.019,0
			c-1.685,0.258-3.387,0.384-5.092,0.378c-4.846,0-9.04-0.973-11.033-2.39c1.342-0.87,2.782-1.58,4.288-2.116
			C300.882,161.739,307.455,162.521,312.728,165.959z"/>
		<path fill="#00BCD4" d="M308.949,166.904c-0.665,0.449-1.385,0.808-2.144,1.067c-0.01,0-0.01,0.009-0.019,0
			c-1.685,0.258-3.387,0.384-5.092,0.378c-4.846,0-9.04-0.973-11.033-2.39c1.342-0.87,2.782-1.58,4.288-2.116
			c0.982-0.144,1.974-0.216,2.966-0.217C301.833,163.628,305.666,164.767,308.949,166.904z"/>
		<path fill="#009688" d="M298.861,183.936c0.005,1.185-0.138,2.365-0.425,3.514c-7.831,1.011-13.744,5.611-13.744,11.127
			c0.005,1.192,0.28,2.368,0.803,3.439c-0.639-0.761-1.223-1.565-1.748-2.409c-5.3-8.572-5.003-19.473,0.756-27.744
			c1.11-0.451,2.297-0.682,3.495-0.68C293.996,171.183,298.861,176.889,298.861,183.936z"/>
		<path fill="#00695C" d="M323.421,186.297c0.02,4.704-1.291,9.317-3.778,13.31c-0.524,0.844-1.108,1.648-1.748,2.409
			c1.037-2.102,1.071-4.559,0.094-6.688c-1.794-3.996-6.811-7.075-13.036-7.878c-0.287-1.149-0.43-2.33-0.425-3.514
			c0-6.291,3.882-11.515,8.983-12.554c0.618-0.133,1.248-0.2,1.88-0.199c1.198-0.001,2.385,0.229,3.495,0.68
			C321.864,176.085,323.449,181.131,323.421,186.297z"/>
		<path fill="#009688" d="M319.642,186.297c0.008,3.086-0.553,6.147-1.653,9.03c-1.794-3.996-6.811-7.075-13.036-7.878
			c-0.287-1.149-0.43-2.33-0.425-3.514c0-6.291,3.882-11.515,8.983-12.554c0.545,0.113,1.08,0.274,1.597,0.481
			C318.086,176.085,319.671,181.131,319.642,186.297z"/>
		<path fill="#00838F" d="M304.953,187.45c-1.081-0.137-2.169-0.207-3.259-0.208c-0.643,0-1.266,0.028-1.89,0.076
			c-0.462,0.028-0.916,0.076-1.37,0.132c-7.831,1.011-13.744,5.611-13.744,11.128c0.005,1.192,0.28,2.367,0.803,3.438
			c2.921,3.633,6.953,6.208,11.478,7.33c0.931,0.229,1.878,0.387,2.833,0.473c0.255,0.028,0.501,0.047,0.756,0.065
			c0.378,0.02,0.756,0.028,1.134,0.028c0.377,0,0.755-0.009,1.133-0.028c1.21-0.072,2.412-0.253,3.59-0.538
			c4.518-1.121,8.545-3.688,11.468-7.312c0-0.01,0.009-0.01,0.009-0.019c0.523-1.071,0.797-2.247,0.803-3.438
			C318.698,193.061,312.784,188.46,304.953,187.45z M296.027,193.854c0-1.568,2.541-2.833,5.668-2.833
			c3.126,0,5.667,1.266,5.667,2.833c0,1.568-2.541,4.723-5.667,4.723C298.568,198.577,296.027,195.422,296.027,193.854z"/>
		<g>
			<path fill="#00BCD4" d="M301.175,187.45c-0.454-0.057-0.907-0.104-1.37-0.132c-0.463,0.028-0.917,0.076-1.37,0.132
				c-7.831,1.011-13.745,5.611-13.745,11.127c0.005,1.192,0.28,2.368,0.803,3.439c2.92,3.633,6.952,6.208,11.477,7.33
				c0.931,0.229,1.878,0.387,2.834,0.473c0.955-0.086,1.902-0.243,2.833-0.473c4.518-1.121,8.545-3.688,11.468-7.312
				c0-0.01,0.01-0.01,0.01-0.019c0.523-1.071,0.797-2.247,0.803-3.439C314.919,193.061,309.006,188.46,301.175,187.45z"/>
			<g>
				<path fill="#00BCD4" d="M301.695,203.3c-0.25,0-0.491-0.1-0.668-0.276c-0.177-0.178-0.276-0.418-0.276-0.668v-3.779
					c0-0.521,0.423-0.944,0.944-0.944c0.522,0,0.945,0.423,0.945,0.944v3.779c0,0.25-0.1,0.49-0.277,0.668
					C302.185,203.201,301.945,203.3,301.695,203.3z"/>
				<path fill="#00BCD4" d="M297.266,205.662c-3.062,0-5.373-1.421-5.373-3.306c0-0.521,0.423-0.945,0.945-0.945
					s0.944,0.423,0.944,0.945c0,0.563,1.39,1.417,3.483,1.417c2.094,0,3.483-0.854,3.483-1.417c0-0.521,0.423-0.945,0.945-0.945
					c0.521,0,0.944,0.423,0.944,0.945C302.639,204.241,300.329,205.662,297.266,205.662z"/>
				<path fill="#00BCD4" d="M306.122,205.662c-3.062,0-5.373-1.421-5.373-3.306c0-0.521,0.423-0.945,0.945-0.945
					c0.521,0,0.944,0.423,0.944,0.945c0,0.563,1.389,1.417,3.483,1.417s3.483-0.854,3.483-1.417c0-0.521,0.423-0.945,0.944-0.945
					c0.522,0,0.945,0.423,0.945,0.945C311.495,204.241,309.185,205.662,306.122,205.662z"/>
			</g>
		</g>
		<path fill="#CFD8DC" d="M306.418,209.346v4.345h-9.446v-4.345c1.178,0.285,2.379,0.466,3.589,0.538
			c0.378,0.02,0.756,0.028,1.134,0.028s0.756-0.009,1.133-0.028C304.038,209.812,305.24,209.631,306.418,209.346z"/>
		<path fill="#00BCD4" d="M308.307,215.581c-0.008,1.04-0.849,1.882-1.89,1.89h-9.446c-1.042-0.004-1.886-0.848-1.89-1.89
			c0.008-1.04,0.849-1.882,1.89-1.89h9.446C307.46,213.695,308.304,214.539,308.307,215.581z"/>
		<g>
			<circle fill="#E91E63" cx="289.414" cy="176.851" r="0.945"/>
			<circle fill="#E91E63" cx="285.636" cy="176.851" r="0.945"/>
			<circle fill="#E91E63" cx="285.636" cy="180.63" r="0.945"/>
			<circle fill="#E91E63" cx="285.636" cy="184.408" r="0.945"/>
			<circle fill="#E91E63" cx="293.193" cy="176.851" r="0.945"/>
			<circle fill="#E91E63" cx="293.193" cy="180.63" r="0.945"/>
			<circle fill="#E91E63" cx="293.193" cy="184.408" r="0.945"/>
			<circle fill="#E91E63" cx="289.414" cy="186.297" r="0.945"/>
			<circle fill="#E91E63" cx="313.974" cy="176.851" r="0.945"/>
			<circle fill="#E91E63" cx="310.196" cy="176.851" r="0.945"/>
			<circle fill="#E91E63" cx="310.196" cy="180.63" r="0.945"/>
			<circle fill="#E91E63" cx="310.196" cy="184.408" r="0.945"/>
			<circle fill="#E91E63" cx="317.753" cy="176.851" r="0.945"/>
			<circle fill="#E91E63" cx="317.753" cy="180.63" r="0.945"/>
			<circle fill="#E91E63" cx="317.753" cy="184.408" r="0.945"/>
			<circle fill="#E91E63" cx="313.974" cy="186.297" r="0.945"/>
		</g>
		<path fill="#CFD8DC" d="M318.886,171.863c-1.11-0.451-2.297-0.682-3.495-0.68c-0.487-0.002-0.974,0.039-1.455,0.123
			c-0.712-0.861-1.492-1.664-2.333-2.399c-0.627-0.562-1.29-1.083-1.984-1.559c1.103-0.295,2.152-0.764,3.108-1.389
			c0.94,0.59,1.829,1.26,2.654,2.002C316.699,169.12,317.876,170.43,318.886,171.863z"/>
		<path fill="#F5F5F5" d="M313.937,171.306c-0.931,0.143-1.834,0.423-2.683,0.831c-3.949,1.908-6.726,6.471-6.726,11.798
			c-0.004,1.185,0.138,2.365,0.425,3.514c-1.081-0.137-2.169-0.207-3.259-0.208c-0.255,0-0.501,0-0.756,0.009
			c-0.85,0.028-1.682,0.095-2.503,0.199c0.287-1.149,0.43-2.33,0.425-3.514c0-7.047-4.865-12.752-10.863-12.752
			c-1.198-0.001-2.385,0.229-3.495,0.68c1.011-1.434,2.187-2.743,3.505-3.901c0.104-0.094,0.208-0.179,0.312-0.274
			c0.735-0.635,1.519-1.213,2.343-1.729c1.993,1.417,6.187,2.39,11.033,2.39c1.704,0.001,3.406-0.125,5.091-0.378
			c0.009,0.01,0.009,0,0.019,0c0.95-0.153,1.89-0.362,2.815-0.624c0.694,0.476,1.357,0.997,1.984,1.559
			C312.445,169.642,313.225,170.445,313.937,171.306z"/>
		<path fill="#CFD8DC" d="M308.949,166.904c0.227,0.142,0.454,0.292,0.671,0.444c-0.926,0.262-1.866,0.47-2.815,0.624
			C307.564,167.712,308.284,167.353,308.949,166.904z"/>
		<path fill="#4E342E" d="M307.362,193.854c0,1.568-2.541,4.723-5.667,4.723c-0.481,0-0.958-0.073-1.417-0.217
			c-2.437-0.727-4.251-3.183-4.251-4.506c0-1.322,1.814-2.428,4.251-2.739c0.469-0.065,0.943-0.097,1.417-0.094
			C304.821,191.021,307.362,192.286,307.362,193.854z"/>
		<path fill="#795548" d="M304.528,193.854c0,1.323-1.813,3.779-4.25,4.506c-2.437-0.727-4.251-3.183-4.251-4.506
			c0-1.322,1.814-2.428,4.251-2.739C302.715,191.426,304.528,192.532,304.528,193.854z"/>
	</g>
	<g>
		<path d="M311.55,202.411c-0.25,0-0.491,0.1-0.668,0.277c-0.177,0.177-0.276,0.417-0.276,0.668c0,0.564-1.39,1.417-3.483,1.417
			c-2.094,0-3.483-0.853-3.483-1.417v-2.923c3.157-0.532,5.668-3.588,5.668-5.579c0-2.154-2.843-3.779-6.613-3.779
			c-3.769,0-6.612,1.625-6.612,3.779c0,1.991,2.511,5.046,5.668,5.579v2.923c0,0.564-1.389,1.417-3.483,1.417
			s-3.483-0.853-3.483-1.417c0-0.521-0.423-0.945-0.944-0.945c-0.522,0-0.945,0.423-0.945,0.945c0,1.885,2.31,3.306,5.373,3.306
			c1.594,0.077,3.164-0.415,4.428-1.388c1.265,0.973,2.834,1.465,4.428,1.388c3.062,0,5.373-1.421,5.373-3.306
			c0-0.251-0.1-0.491-0.277-0.668C312.041,202.511,311.801,202.411,311.55,202.411z M297.971,194.854c0-0.77,1.84-1.889,4.723-1.889
			s4.723,1.119,4.723,1.889c0,1.035-2.146,3.779-4.723,3.779C300.117,198.633,297.971,195.889,297.971,194.854z"/>
		<circle cx="290.414" cy="177.851" r="0.945"/>
		<circle cx="286.636" cy="177.851" r="0.945"/>
		<circle cx="286.636" cy="181.63" r="0.945"/>
		<circle cx="286.636" cy="185.408" r="0.945"/>
		<circle cx="294.193" cy="177.851" r="0.945"/>
		<circle cx="294.193" cy="181.63" r="0.945"/>
		<circle cx="294.193" cy="185.408" r="0.945"/>
		<circle cx="290.414" cy="187.297" r="0.945"/>
		<circle cx="314.974" cy="177.851" r="0.945"/>
		<circle cx="311.196" cy="177.851" r="0.945"/>
		<circle cx="311.196" cy="181.63" r="0.945"/>
		<circle cx="311.196" cy="185.408" r="0.945"/>
		<circle cx="318.753" cy="177.851" r="0.945"/>
		<circle cx="318.753" cy="181.63" r="0.945"/>
		<circle cx="318.753" cy="185.408" r="0.945"/>
		<circle cx="314.974" cy="187.297" r="0.945"/>
		<path d="M274.385,192.592c-0.052,2.265,0.084,4.53,0.409,6.772c0.133,1.684,1.205,3.148,2.769,3.785
			c-0.12,4.28,2.003,6.474,3.87,7.568c0.878,0.509,1.961,0.51,2.84,0.002c0.879-0.508,1.419-1.446,1.417-2.461v-4.744
			c2.906,3.633,6.867,6.276,11.337,7.566v2.84c-1.301,0.458-2.082,1.787-1.848,3.146c0.233,1.359,1.414,2.351,2.793,2.348h9.446
			c1.379,0.003,2.559-0.989,2.793-2.348c0.233-1.359-0.547-2.688-1.849-3.146v-2.841c4.396-1.266,8.3-3.843,11.192-7.386
			c0.032-0.034,0.062-0.07,0.088-0.109c0.019-0.022,0.037-0.046,0.055-0.069v4.742c-0.008,1.018,0.531,1.961,1.412,2.47
			c0.881,0.509,1.968,0.505,2.845-0.011c1.868-1.095,3.991-3.289,3.871-7.568c1.565-0.638,2.636-2.104,2.77-3.788
			c0.324-2.243,0.46-4.509,0.409-6.775c0.003-0.522,0.005-1.044,0.012-1.558c0.074-2.535-0.016-5.071-0.271-7.594
			c-0.652-5.903-2.608-10.546-5.81-13.801c-3.651-3.728-6.938-2.691-8.477-1.833c-0.704-0.585-1.443-1.128-2.213-1.624
			c-0.016-0.011-0.031-0.021-0.048-0.03c-6.994-4.544-16.008-4.544-23.002-0.001c-0.019,0.011-0.036,0.021-0.053,0.033
			c-0.769,0.496-1.507,1.039-2.211,1.624c-1.538-0.858-4.825-1.897-8.477,1.831c-3.203,3.256-5.159,7.899-5.811,13.802
			c-0.256,2.521-0.346,5.056-0.27,7.589C274.381,191.543,274.383,192.067,274.385,192.592z M291.691,168.078
			c2.358,1.372,6.464,2.216,11.003,2.216c4.539,0,8.645-0.844,11.003-2.216c1.352,0.925,2.592,2.002,3.697,3.21
			c-0.332-0.032-0.666-0.049-1.003-0.049c-6.511,0-11.808,6.145-11.808,13.697c0.001,0.82,0.066,1.639,0.196,2.449
			c-1.388-0.109-2.782-0.11-4.17-0.002c0.129-0.81,0.195-1.627,0.196-2.447c0-7.552-5.297-13.697-11.808-13.697
			c-0.336,0-0.671,0.016-1.003,0.049C289.099,170.08,290.34,169.002,291.691,168.078L291.691,168.078z M320.592,198.8
			c-0.497-5.402-6.118-9.963-13.833-11.176c-0.185-0.884-0.281-1.785-0.286-2.688c0-6.511,4.449-11.808,9.918-11.808
			c0.985,0.001,1.961,0.178,2.884,0.521C324.359,181.135,324.866,190.824,320.592,198.8L320.592,198.8z M286.113,173.649
			c0.923-0.343,1.899-0.52,2.884-0.521c5.469,0,9.918,5.297,9.918,11.808c-0.005,0.901-0.1,1.798-0.284,2.68
			c-7.601,1.199-13.333,5.703-13.845,11.166C280.523,190.809,281.034,181.129,286.113,173.649z M307.418,217.525h-9.446
			c-0.522,0-0.945-0.423-0.945-0.944s0.423-0.944,0.945-0.944h9.446c0.521,0,0.944,0.423,0.944,0.944
			S307.939,217.525,307.418,217.525z M306.473,213.747h-7.557v-2.236c0.852,0.156,1.711,0.261,2.576,0.312
			c0.008,0.001,0.014,0.006,0.022,0.006c0.394,0.02,0.788,0.03,1.181,0.029c0.394,0,0.787-0.01,1.181-0.029
			c0.008,0,0.014-0.005,0.022-0.006c0.864-0.051,1.725-0.155,2.576-0.312V213.747L306.473,213.747z M302.695,209.968
			c-5.983-0.057-11.626-2.788-15.384-7.444c-0.438-0.921-0.668-1.927-0.675-2.947c0-6.39,8.928-11.478,19.197-10.19
			c7.487,0.966,12.92,5.252,12.92,10.19c-0.007,1.019-0.236,2.024-0.673,2.944C314.323,207.179,308.678,209.912,302.695,209.968z
			 M323.587,170.957c2.898,2.946,4.675,7.214,5.279,12.685c0.246,2.443,0.333,4.9,0.259,7.355c-0.007,0.524-0.009,1.051-0.012,1.58
			c0.05,2.16-0.077,4.32-0.38,6.459c-0.058,0.831-0.464,1.598-1.119,2.112c-0.099-0.59-0.223-1.194-0.393-1.819
			c-0.137-0.503-0.657-0.8-1.16-0.663c-0.503,0.137-0.8,0.657-0.663,1.16c0.246,0.879,0.413,1.779,0.499,2.688
			c0.272,3.074-0.703,5.286-2.899,6.574c-0.286,0.171-0.643,0.172-0.929,0.002c-0.299-0.169-0.484-0.487-0.482-0.831v-7.405
			c5.384-8.896,4.986-20.136-1.012-28.628c-0.009-0.01-0.014-0.022-0.023-0.031c-0.777-1.081-1.643-2.096-2.588-3.034
			C319.296,168.627,321.272,168.594,323.587,170.957z M311.795,166.92c-2.915,1.057-6.001,1.56-9.101,1.484
			c-3.1,0.076-6.186-0.428-9.101-1.484C299.275,163.861,306.114,163.861,311.795,166.92L311.795,166.92z M276.521,183.641
			c0.604-5.471,2.381-9.738,5.28-12.686c2.315-2.363,4.292-2.328,5.624-1.795c-0.945,0.938-1.811,1.952-2.588,3.033
			c-0.009,0.009-0.014,0.022-0.022,0.032c-5.998,8.492-6.396,19.73-1.015,28.625v7.409c0.001,0.344-0.183,0.662-0.482,0.831
			c-0.287,0.17-0.643,0.169-0.929-0.002c-2.196-1.288-3.171-3.5-2.899-6.575c0.086-0.909,0.253-1.808,0.499-2.687
			c0.137-0.503-0.16-1.022-0.663-1.16c-0.503-0.137-1.022,0.16-1.16,0.663c-0.161,0.599-0.292,1.207-0.393,1.819
			c-0.654-0.514-1.061-1.28-1.118-2.109c-0.304-2.138-0.431-4.296-0.38-6.455c-0.003-0.531-0.005-1.061-0.012-1.592
			C276.187,188.539,276.274,186.083,276.521,183.641z"/>
	</g>
</g>
</svg>
