<?xml version="1.0" encoding="iso-8859-1"?>
<!-- Generator: Adobe Illustrator 19.0.0, SVG Export Plug-In . SVG Version: 6.00 Build 0)  -->
<svg version="1.1" id="Capa_1" xmlns="http://www.w3.org/2000/svg" xmlns:xlink="http://www.w3.org/1999/xlink" x="0px" y="0px"
	 viewBox="0 0 512.14 512.14" style="enable-background:new 0 0 512.14 512.14;" xml:space="preserve">
<g transform="translate(-1)">
	<g transform="translate(1 1)">
		<path style="fill:#37474F;" d="M503.376,254.472c0.705,24.719-0.522,49.456-3.669,73.984c-2.56,14.507-8.789,25.259-23.637,29.013
			l-1.877,0.171c3.413,38.571-14.08,57.941-30.379,67.499c-4.388,2.547-9.685,2.999-14.442,1.231
			c-4.756-1.767-8.473-5.568-10.134-10.362c-0.691-1.826-1.039-3.765-1.024-5.717v-69.12c-4.738,7.62-10.013,14.892-15.787,21.76
			c0,0.085-0.085,0.085-0.085,0.171c-3.072,3.755-6.315,7.424-9.728,11.008c-25.275,27.079-57.894,46.205-93.867,55.04v39.253
			c9.414,0.027,17.039,7.652,17.067,17.067c-0.068,9.397-7.669,16.999-17.067,17.067h-85.333
			c-9.416-0.023-17.044-7.651-17.067-17.067c0.068-9.397,7.669-16.999,17.067-17.067V429.15c-8.732-2.101-17.291-4.868-25.6-8.277
			c-0.739-0.21-1.454-0.496-2.133-0.853c-29.627-12.492-55.713-32.101-75.947-57.088c-5.773-6.868-11.049-14.14-15.787-21.76v69.12
			c0.021,6.108-3.223,11.762-8.507,14.826c-5.284,3.065-11.802,3.073-17.093,0.022c-3.734-2.149-7.224-4.695-10.411-7.595
			c-12.459-11.179-22.613-29.611-19.968-59.904l-1.877-0.171c-14.848-3.755-21.077-14.507-23.637-29.013
			c-3.147-24.528-4.374-49.265-3.669-73.984c-0.656-22.528,0.142-45.074,2.389-67.499c4.864-44.032,18.688-87.723,50.091-119.637
			c16.64-16.981,32-21.76,44.459-21.333c0.627-0.059,1.259-0.03,1.877,0.085c8.969,0.723,17.563,3.913,24.832,9.216
			c7.459-6.707,15.482-12.759,23.979-18.091c29.658-19.306,64.281-29.592,99.669-29.611c35.377,0.093,69.979,10.373,99.669,29.611
			c2.304,1.451,4.608,2.987,6.827,4.523c5.977,4.184,11.704,8.715,17.152,13.568c8.649-6.39,19.205-9.668,29.952-9.301
			c15.995,1.464,30.785,9.119,41.216,21.333c31.403,31.915,45.227,75.605,50.091,119.637
			C503.234,209.398,504.032,231.945,503.376,254.472z"/>
		<path style="fill:#607D8B;" d="M477.776,245.939c0.705,24.719-0.522,49.456-3.669,73.984c-2.56,14.507-8.789,25.259-23.637,29.013
			l-1.877,0.171c3.328,37.803-13.397,57.088-29.355,66.901c-0.691-1.826-1.039-3.765-1.024-5.717v-69.12
			c-4.738,7.62-10.013,14.892-15.787,21.76c0,0.085-0.085,0.085-0.085,0.171c-3.072,3.755-6.315,7.424-9.728,11.008v-41.472
			c-4.738,7.62-10.013,14.892-15.787,21.76c0,0.085-0.085,0.085-0.085,0.171c-26.401,32.729-62.782,55.924-103.595,66.048v39.253
			c9.414,0.027,17.039,7.652,17.067,17.067c-0.068,9.397-7.669,16.999-17.067,17.067h-74.496c-1.506-2.592-2.301-5.536-2.304-8.533
			c0.068-9.397,7.669-16.999,17.067-17.067V429.15c-8.732-2.101-17.291-4.868-25.6-8.277v-0.256
			c-0.722-0.159-1.434-0.359-2.133-0.597c-29.627-12.492-55.713-32.101-75.947-57.088c-5.773-6.868-11.049-14.14-15.787-21.76v24.32
			c-3.413-3.584-6.656-7.253-9.813-11.093c-5.773-6.868-11.049-14.14-15.787-21.76v69.12c0.029,6.88-4.076,13.104-10.411,15.787
			c-12.459-11.179-22.613-29.611-19.968-59.904l-1.877-0.171c-14.848-3.755-21.077-14.507-23.637-29.013
			c-3.147-24.528-4.374-49.265-3.669-73.984c-0.656-22.528,0.142-45.074,2.389-67.499c4.864-44.032,18.688-87.723,50.091-119.637
			c16.64-16.981,32-21.76,44.459-21.333c0.383,0.236,0.754,0.492,1.109,0.768c0.256-0.256,0.512-0.427,0.768-0.683
			c8.969,0.723,17.563,3.913,24.832,9.216c7.459-6.707,15.482-12.759,23.979-18.091c29.658-19.306,64.281-29.592,99.669-29.611
			c15.082,0,30.104,1.892,44.715,5.632c10.251,4.208,20.08,9.38,29.355,15.445c8.497,5.331,16.52,11.384,23.979,18.091
			c2.668-1.915,5.494-3.599,8.448-5.035c5.977,4.184,11.704,8.715,17.152,13.568c8.649-6.39,19.205-9.668,29.952-9.301
			c5.686,3.644,10.927,7.94,15.616,12.8c31.403,31.915,45.227,75.605,50.091,119.637
			C477.634,200.865,478.432,223.412,477.776,245.939z"/>
		<path style="fill:#00838F;" d="M355.749,37.214c-16.336,9.801-34.578,15.998-53.504,18.176c-0.085,0-0.085,0.085-0.171,0
			c-15.22,2.329-30.598,3.47-45.995,3.413c-43.776,0-81.664-8.789-99.669-21.589c12.127-7.856,25.129-14.27,38.741-19.115
			C248.737-0.911,308.123,6.157,355.749,37.214z"/>
		<path style="fill:#00BCD4;" d="M321.616,45.747c-6.002,4.057-12.516,7.3-19.371,9.643c-0.085,0-0.085,0.085-0.171,0
			c-15.22,2.329-30.598,3.47-45.995,3.413c-43.776,0-81.664-8.789-99.669-21.589c12.127-7.856,25.129-14.27,38.741-19.115
			c8.873-1.299,17.827-1.955,26.795-1.963C257.335,16.155,291.958,26.441,321.616,45.747z"/>
		<path style="fill:#009688;" d="M230.48,199.603c0.043,10.7-1.247,21.363-3.84,31.744c-70.741,9.131-124.16,50.688-124.16,100.523
			c0.048,10.768,2.528,21.386,7.253,31.061c-5.773-6.868-11.049-14.14-15.787-21.76c-47.877-77.436-45.195-175.909,6.827-250.624
			c10.027-4.073,20.75-6.159,31.573-6.144C186.533,84.403,230.48,135.944,230.48,199.603z"/>
		<path style="fill:#00695C;" d="M452.347,220.936c0.174,42.493-11.658,84.171-34.133,120.235
			c-4.738,7.62-10.013,14.892-15.787,21.76c9.363-18.984,9.676-41.175,0.853-60.416c-16.213-36.096-61.525-63.915-117.76-71.168
			c-2.593-10.381-3.883-21.044-3.84-31.744c0-56.832,35.072-104.021,81.152-113.408c5.58-1.204,11.273-1.805,16.981-1.792
			c10.823-0.015,21.546,2.071,31.573,6.144C438.284,128.685,452.604,174.269,452.347,220.936z"/>
		<path style="fill:#009688;" d="M418.213,220.936c0.071,27.879-4.991,55.533-14.933,81.579
			c-16.213-36.096-61.525-63.915-117.76-71.168c-2.593-10.381-3.883-21.044-3.84-31.744c0-56.832,35.072-104.021,81.152-113.408
			c4.926,1.021,9.752,2.478,14.421,4.352C404.151,128.685,418.47,174.269,418.213,220.936z"/>
		<path style="fill:#00838F;" d="M285.52,231.347c-9.765-1.236-19.597-1.863-29.44-1.877c-5.803,0-11.435,0.256-17.067,0.683
			c-4.181,0.256-8.277,0.683-12.373,1.195c-70.741,9.131-124.16,50.688-124.16,100.523c0.048,10.768,2.528,21.386,7.253,31.061
			c26.383,32.824,62.805,56.086,103.68,66.219c8.412,2.071,16.971,3.497,25.6,4.267c2.304,0.256,4.523,0.427,6.827,0.597
			c3.413,0.171,6.827,0.256,10.24,0.256s6.827-0.085,10.24-0.256c10.932-0.656,21.784-2.284,32.427-4.864
			c40.813-10.124,77.194-33.319,103.595-66.048c0-0.085,0.085-0.085,0.085-0.171c4.726-9.676,7.205-20.293,7.253-31.061
			C409.68,282.035,356.261,240.478,285.52,231.347z M204.88,289.203c0-14.165,22.955-25.6,51.2-25.6s51.2,11.435,51.2,25.6
			s-22.955,42.667-51.2,42.667S204.88,303.368,204.88,289.203z"/>
		<g>
			<path style="fill:#00BCD4;" d="M251.387,231.347c-4.096-0.512-8.192-0.939-12.373-1.195c-4.181,0.256-8.277,0.683-12.373,1.195
				c-70.741,9.131-124.16,50.688-124.16,100.523c0.048,10.768,2.528,21.386,7.253,31.061c26.383,32.824,62.805,56.086,103.68,66.219
				c8.412,2.071,16.971,3.497,25.6,4.267c8.629-0.769,17.188-2.196,25.6-4.267c40.813-10.124,77.194-33.319,103.595-66.048
				c0-0.085,0.085-0.085,0.085-0.171c4.726-9.676,7.205-20.293,7.253-31.061C375.547,282.035,322.128,240.478,251.387,231.347z"/>
			<g>
				<path style="fill:#00BCD4;" d="M256.08,374.536c-2.263,0.001-4.434-0.898-6.035-2.499c-1.6-1.6-2.499-3.771-2.499-6.035V331.87
					c0-4.713,3.821-8.533,8.533-8.533s8.533,3.821,8.533,8.533v34.133c0.001,2.263-0.898,4.434-2.499,6.035
					C260.514,373.638,258.343,374.537,256.08,374.536z"/>
				<path style="fill:#00BCD4;" d="M216.08,395.87c-27.667,0-48.533-12.842-48.533-29.867c0-4.713,3.821-8.533,8.533-8.533
					c4.713,0,8.533,3.821,8.533,8.533c0,5.096,12.55,12.8,31.467,12.8s31.467-7.704,31.467-12.8c0-4.713,3.821-8.533,8.533-8.533
					s8.533,3.821,8.533,8.533C264.613,383.028,243.747,395.87,216.08,395.87z"/>
				<path style="fill:#00BCD4;" d="M296.08,395.87c-27.667,0-48.533-12.842-48.533-29.867c0-4.713,3.821-8.533,8.533-8.533
					s8.533,3.821,8.533,8.533c0,5.096,12.55,12.8,31.467,12.8c18.917,0,31.467-7.704,31.467-12.8c0-4.713,3.82-8.533,8.533-8.533
					s8.533,3.821,8.533,8.533C344.613,383.028,323.747,395.87,296.08,395.87z"/>
			</g>
		</g>
		<path style="fill:#CFD8DC;" d="M298.747,429.15v39.253h-85.333V429.15c10.643,2.58,21.495,4.208,32.427,4.864
			c3.413,0.171,6.827,0.256,10.24,0.256s6.827-0.085,10.24-0.256C277.252,433.358,288.104,431.73,298.747,429.15z"/>
		<path style="fill:#00BCD4;" d="M315.813,485.47c-0.068,9.397-7.669,16.999-17.067,17.067h-85.333
			c-9.414-0.028-17.039-7.652-17.067-17.067c0.068-9.397,7.669-16.999,17.067-17.067h85.333
			C308.161,468.431,315.786,476.056,315.813,485.47z"/>
		<g>
			<circle style="fill:#E91E63;" cx="145.147" cy="135.603" r="8.533"/>
			<circle style="fill:#E91E63;" cx="111.013" cy="135.603" r="8.533"/>
			<circle style="fill:#E91E63;" cx="111.013" cy="169.736" r="8.533"/>
			<circle style="fill:#E91E63;" cx="111.013" cy="203.87" r="8.533"/>
			<circle style="fill:#E91E63;" cx="179.28" cy="135.603" r="8.533"/>
			<circle style="fill:#E91E63;" cx="179.28" cy="169.736" r="8.533"/>
			<circle style="fill:#E91E63;" cx="179.28" cy="203.87" r="8.533"/>
			<circle style="fill:#E91E63;" cx="145.147" cy="220.936" r="8.533"/>
			<circle style="fill:#E91E63;" cx="367.013" cy="135.603" r="8.533"/>
			<circle style="fill:#E91E63;" cx="332.88" cy="135.603" r="8.533"/>
			<circle style="fill:#E91E63;" cx="332.88" cy="169.736" r="8.533"/>
			<circle style="fill:#E91E63;" cx="332.88" cy="203.87" r="8.533"/>
			<circle style="fill:#E91E63;" cx="401.147" cy="135.603" r="8.533"/>
			<circle style="fill:#E91E63;" cx="401.147" cy="169.736" r="8.533"/>
			<circle style="fill:#E91E63;" cx="401.147" cy="203.87" r="8.533"/>
			<circle style="fill:#E91E63;" cx="367.013" cy="220.936" r="8.533"/>
		</g>
		<path style="fill:#CFD8DC;" d="M411.387,90.547c-10.027-4.073-20.75-6.159-31.573-6.144c-4.405-0.02-8.802,0.352-13.141,1.109
			c-6.43-7.781-13.479-15.03-21.077-21.675c-5.662-5.076-11.648-9.78-17.92-14.08c9.964-2.667,19.44-6.901,28.075-12.544
			c8.497,5.331,16.52,11.384,23.979,18.091C391.631,65.765,402.258,77.594,411.387,90.547z"/>
		<path style="fill:#F5F5F5;" d="M366.672,85.512c-8.405,1.29-16.572,3.821-24.235,7.509
			c-35.669,17.237-60.757,58.453-60.757,106.581c-0.043,10.7,1.247,21.363,3.84,31.744c-9.765-1.236-19.597-1.863-29.44-1.877
			c-2.304,0-4.523,0-6.827,0.085c-7.68,0.256-15.189,0.853-22.613,1.792c2.593-10.381,3.883-21.044,3.84-31.744
			c0-63.659-43.947-115.2-98.133-115.2c-10.823-0.015-21.546,2.071-31.573,6.144c9.129-12.953,19.756-24.782,31.659-35.243
			c0.939-0.853,1.877-1.621,2.816-2.475c6.643-5.74,13.719-10.961,21.163-15.616c18.005,12.8,55.893,21.589,99.669,21.589
			c15.395,0.014,30.77-1.127,45.995-3.413c0.085,0.085,0.085,0,0.171,0c8.578-1.387,17.068-3.268,25.429-5.632
			c6.272,4.3,12.258,9.004,17.92,14.08C353.193,70.483,360.242,77.731,366.672,85.512z"/>
		<path style="fill:#CFD8DC;" d="M321.616,45.747c2.048,1.28,4.096,2.645,6.059,4.011c-8.361,2.364-16.852,4.245-25.429,5.632
			C309.101,53.047,315.614,49.804,321.616,45.747z"/>
		<path style="fill:#4E342E;" d="M307.28,289.203c0,14.165-22.955,42.667-51.2,42.667c-4.342,0.001-8.658-0.661-12.8-1.963
			c-22.016-6.571-38.4-28.757-38.4-40.704c0-11.947,16.384-21.931,38.4-24.747c4.24-0.593,8.518-0.878,12.8-0.853
			C284.325,263.603,307.28,275.038,307.28,289.203z"/>
		<path style="fill:#795548;" d="M281.68,289.203c0,11.947-16.384,34.133-38.4,40.704c-22.016-6.571-38.4-28.757-38.4-40.704
			c0-11.947,16.384-21.931,38.4-24.747C265.296,267.272,281.68,277.256,281.68,289.203z"/>
	</g>
	<g>
		<path d="M337.08,358.47c-2.263-0.001-4.434,0.898-6.035,2.499c-1.6,1.6-2.499,3.771-2.499,6.035c0,5.096-12.55,12.8-31.467,12.8
			c-18.917,0-31.467-7.704-31.467-12.8v-26.402c28.516-4.807,51.2-32.414,51.2-50.398c0-19.458-25.683-34.133-59.733-34.133
			s-59.733,14.675-59.733,34.133c0,17.984,22.684,45.59,51.2,50.397v26.403c0,5.096-12.55,12.8-31.467,12.8
			s-31.467-7.704-31.467-12.8c0-4.713-3.821-8.533-8.533-8.533c-4.713,0-8.533,3.821-8.533,8.533
			c0,17.025,20.867,29.867,48.533,29.867c14.399,0.696,28.576-3.75,40-12.542c11.424,8.792,25.601,13.237,40,12.542
			c27.667,0,48.533-12.842,48.533-29.867c0.001-2.263-0.898-4.434-2.499-6.035C341.514,359.368,339.343,358.469,337.08,358.47z
			 M214.413,290.203c0-6.958,16.625-17.067,42.667-17.067s42.667,10.108,42.667,17.067c0,9.35-19.383,34.133-42.667,34.133
			S214.413,299.553,214.413,290.203z"/>
		<circle cx="146.147" cy="136.603" r="8.533"/>
		<circle cx="112.013" cy="136.603" r="8.533"/>
		<circle cx="112.013" cy="170.736" r="8.533"/>
		<circle cx="112.013" cy="204.87" r="8.533"/>
		<circle cx="180.28" cy="136.603" r="8.533"/>
		<circle cx="180.28" cy="170.736" r="8.533"/>
		<circle cx="180.28" cy="204.87" r="8.533"/>
		<circle cx="146.147" cy="221.936" r="8.533"/>
		<circle cx="368.013" cy="136.603" r="8.533"/>
		<circle cx="333.88" cy="136.603" r="8.533"/>
		<circle cx="333.88" cy="170.736" r="8.533"/>
		<circle cx="333.88" cy="204.87" r="8.533"/>
		<circle cx="402.147" cy="136.603" r="8.533"/>
		<circle cx="402.147" cy="170.736" r="8.533"/>
		<circle cx="402.147" cy="204.87" r="8.533"/>
		<circle cx="368.013" cy="221.936" r="8.533"/>
		<path d="M1.347,269.766c-0.471,20.459,0.764,40.921,3.692,61.175c1.206,15.208,10.882,28.437,25.01,34.193
			c-1.079,38.666,18.098,58.479,34.965,68.369c7.931,4.599,17.715,4.607,25.653,0.021c7.938-4.586,12.819-13.066,12.797-22.233
			v-42.859c26.254,32.822,62.034,56.701,102.417,68.351v25.66c-11.753,4.132-18.809,16.141-16.698,28.419
			c2.111,12.278,12.773,21.24,25.231,21.209h85.333c12.458,0.031,23.12-8.932,25.231-21.209
			c2.111-12.277-4.945-24.287-16.697-28.418v-25.66c39.704-11.435,74.976-34.708,101.107-66.714c0.288-0.31,0.553-0.641,0.792-0.99
			c0.169-0.206,0.333-0.42,0.501-0.627v42.839c-0.078,9.191,4.793,17.714,12.752,22.311c7.959,4.598,17.775,4.56,25.698-0.099
			c16.868-9.891,36.048-29.709,34.964-68.371c14.135-5.762,23.815-19,25.02-34.217c2.924-20.265,4.159-40.738,3.692-61.208
			c0.025-4.721,0.042-9.429,0.108-14.071c0.669-22.895-0.147-45.81-2.442-68.6c-5.892-53.321-23.558-95.271-52.483-124.671
			c-32.983-33.67-62.676-24.309-76.572-16.56c-6.362-5.289-13.038-10.189-19.991-14.673c-0.146-0.096-0.285-0.185-0.437-0.272
			c-63.182-41.049-144.609-41.054-207.796-0.012c-0.166,0.095-0.319,0.192-0.479,0.299c-6.947,4.483-13.618,9.38-19.976,14.666
			c-13.894-7.754-43.588-17.142-76.573,16.541C27.23,91.766,9.563,133.716,3.672,187.036c-2.312,22.773-3.125,45.674-2.433,68.554
			C1.305,260.295,1.322,265.024,1.347,269.766z M157.682,48.317c21.303,12.398,58.393,20.019,99.398,20.019
			s78.096-7.621,99.398-20.02c12.207,8.353,23.413,18.083,33.396,28.997c-2.998-0.292-6.019-0.44-9.061-0.444
			c-58.817,0-106.667,55.508-106.667,123.733c0.011,7.41,0.603,14.808,1.771,22.125c-12.538-0.985-25.134-0.991-37.673-0.017
			c1.167-7.312,1.759-14.704,1.769-22.108c0-68.225-47.85-123.733-106.667-123.733c-3.041,0-6.061,0.148-9.061,0.444
			C134.268,66.399,145.474,56.669,157.682,48.317L157.682,48.317z M418.759,325.848c-4.491-48.805-55.264-90.002-124.965-100.965
			c-1.67-7.986-2.535-16.121-2.58-24.28c0-58.817,40.192-106.667,89.6-106.667c8.895,0.015,17.717,1.61,26.055,4.71
			C452.789,166.271,457.37,253.799,418.759,325.848L418.759,325.848z M107.292,98.647c8.338-3.1,17.159-4.695,26.055-4.71
			c49.408,0,89.6,47.85,89.6,106.667c-0.046,8.135-0.907,16.245-2.569,24.209c-68.665,10.83-120.447,51.516-125.066,100.867
			C56.795,253.658,61.409,166.214,107.292,98.647z M299.747,495.003h-85.333c-4.713,0-8.533-3.821-8.533-8.533
			c0-4.713,3.821-8.533,8.533-8.533h85.333c4.713,0,8.533,3.821,8.533,8.533C308.28,491.183,304.46,495.003,299.747,495.003z
			 M291.213,460.87h-68.267v-20.207c7.69,1.42,15.46,2.363,23.267,2.822c0.071,0.005,0.129,0.047,0.2,0.051
			c3.558,0.179,7.114,0.268,10.667,0.267c3.558,0,7.114-0.089,10.667-0.267c0.071-0.004,0.129-0.046,0.2-0.051
			c7.806-0.459,15.577-1.402,23.267-2.822V460.87z M257.08,426.736c-54.047-0.513-105.029-25.184-138.968-67.248
			c-3.956-8.32-6.038-17.406-6.098-26.618c0-57.725,80.65-103.688,173.417-92.058c67.633,8.729,116.717,47.446,116.717,92.058
			c-0.06,9.203-2.135,18.281-6.08,26.595C362.127,401.543,311.137,426.223,257.08,426.736z M445.813,74.32
			c26.183,26.617,42.233,65.171,47.692,114.592c2.22,22.074,3.002,44.27,2.342,66.446c-0.067,4.733-0.083,9.496-0.108,14.271
			c0.45,19.51-0.698,39.024-3.433,58.346c-0.523,7.503-4.195,14.436-10.108,19.084c-0.896-5.331-2.013-10.784-3.55-16.434
			c-1.24-4.547-5.932-7.228-10.479-5.987c-4.547,1.24-7.228,5.932-5.988,10.479c2.219,7.944,3.727,16.069,4.508,24.279
			c2.458,27.771-6.35,47.75-26.192,59.383c-2.581,1.548-5.803,1.556-8.392,0.021c-2.706-1.529-4.373-4.401-4.358-7.508v-66.898
			c48.634-80.359,45.043-181.896-9.147-258.618c-0.081-0.087-0.12-0.2-0.205-0.283c-7.024-9.763-14.845-18.929-23.381-27.402
			C407.048,53.282,424.9,52.977,445.813,74.32z M339.291,37.862c-26.331,9.546-54.212,14.093-82.211,13.407
			c-27.999,0.686-55.88-3.861-82.211-13.407C226.193,10.228,287.967,10.228,339.291,37.862L339.291,37.862z M20.638,188.911
			c5.458-49.421,21.508-87.975,47.7-114.604c20.915-21.347,38.767-21.028,50.803-16.212c-8.534,8.472-16.353,17.635-23.376,27.397
			c-0.085,0.084-0.125,0.196-0.205,0.283c-54.183,76.712-57.781,178.234-9.164,258.589v66.926c0.015,3.107-1.653,5.98-4.358,7.508
			c-2.589,1.536-5.811,1.528-8.392-0.021c-19.842-11.633-28.65-31.612-26.192-59.392c0.782-8.208,2.291-16.33,4.508-24.271
			c1.24-4.547-1.44-9.239-5.987-10.479c-4.547-1.24-9.239,1.44-10.479,5.988c-1.457,5.414-2.64,10.898-3.547,16.43
			c-5.91-4.638-9.58-11.561-10.103-19.055c-2.743-19.309-3.891-38.811-3.433-58.308c-0.025-4.796-0.042-9.579-0.108-14.379
			C17.626,233.151,18.406,210.969,20.638,188.911z"/>
	</g>
</g>
<g>
</g>
<g>
</g>
<g>
</g>
<g>
</g>
<g>
</g>
<g>
</g>
<g>
</g>
<g>
</g>
<g>
</g>
<g>
</g>
<g>
</g>
<g>
</g>
<g>
</g>
<g>
</g>
<g>
</g>
</svg>
